<svg width="200" height="60" viewBox="0 0 200 60" fill="none" xmlns="http://www.w3.org/2000/svg">
<path d="M80.0161 21.9375C77.7966 19.7205 75.0844 18.5953 71.9549 18.5953C68.8241 18.5953 66.1119 19.7205 63.8937 21.9375C61.6754 24.1558 60.5515 26.868 60.5515 29.9987C60.5515 33.1295 61.6754 35.8417 63.8937 38.0599C66.1119 40.2769 68.8241 41.4021 71.9549 41.4021C74.6281 41.4021 77.0022 40.5811 79.0139 38.962L81.0584 41.0065C81.3323 41.2686 81.6563 41.4028 82.021 41.4028C82.3883 41.4028 82.7054 41.2698 82.9651 41.0102C83.226 40.7493 83.3589 40.4315 83.3589 40.0649C83.3589 39.7125 83.2359 39.3984 82.9867 39.1264L80.9181 37.0578C82.5372 35.046 83.3583 32.672 83.3583 29.9987C83.3583 26.8686 82.2331 24.157 80.0161 21.9375ZM74.9236 32.9681C74.6628 33.229 74.5311 33.5468 74.5311 33.9134C74.5311 34.2782 74.6603 34.5978 74.9162 34.8649L77.1029 37.0516C75.6272 38.1638 73.8955 38.7264 71.9543 38.7264C69.5561 38.7264 67.4794 37.8664 65.783 36.17C64.0866 34.4735 63.2253 32.3963 63.2253 29.9987C63.2253 27.6012 64.0866 25.5239 65.783 23.8287C67.4794 22.131 69.5555 21.2711 71.9543 21.2711C74.3524 21.2711 76.4278 22.131 78.1243 23.8287C79.8219 25.5252 80.6819 27.6012 80.6819 29.9987C80.6819 31.9394 80.1193 33.6705 79.0071 35.1487L76.8167 32.9582C76.2875 32.4501 75.4442 32.4501 74.9236 32.9681Z" fill="#261961"/>
<path d="M98.5533 25.6989C98.2924 25.9598 98.1607 26.2775 98.1607 26.6429V33.9134C98.1607 35.2358 97.6859 36.3802 96.7493 37.3162C95.8133 38.2522 94.6689 38.7264 93.3465 38.7264C92.0241 38.7264 90.8797 38.2516 89.9437 37.3162C89.0077 36.3808 88.5335 35.2358 88.5335 33.9134V26.6429C88.5335 26.2769 88.4006 25.9598 88.1397 25.6989C87.6192 25.1771 86.7703 25.1783 86.2498 25.6989C85.9901 25.9598 85.8572 26.2775 85.8572 26.6429V33.9134C85.8572 35.9684 86.596 37.7483 88.0538 39.2061C89.5116 40.6639 91.2909 41.4027 93.3465 41.4027C95.1833 41.4027 96.8 40.8135 98.1607 39.6519V40.0649C98.1607 40.4321 98.2924 40.7493 98.5533 41.0101C98.8142 41.2698 99.132 41.4027 99.4974 41.4027C99.8646 41.4027 100.182 41.2698 100.443 41.0101C100.704 40.7493 100.835 40.4315 100.835 40.0649V26.6429C100.835 26.2782 100.704 25.9598 100.443 25.6989C99.9215 25.1783 99.0751 25.1783 98.5533 25.6989Z" fill="#261961"/>
<path d="M104.563 25.6989C104.304 25.9598 104.171 26.2775 104.171 26.6429V40.0642C104.171 40.4315 104.304 40.7486 104.563 41.0083C104.824 41.2692 105.142 41.4021 105.509 41.4021C105.875 41.4021 106.193 41.2692 106.453 41.0095C106.713 40.7486 106.846 40.4309 106.846 40.0642V26.6429C106.846 26.2769 106.713 25.9598 106.453 25.6989C105.933 25.1771 105.084 25.1783 104.563 25.6989Z" fill="#261961"/>
<path d="M105.509 20.552C105.068 20.552 104.684 20.7127 104.368 21.0287C104.052 21.344 103.892 21.7279 103.892 22.1687C103.892 22.6107 104.053 22.9947 104.368 23.31C104.684 23.6265 105.068 23.7866 105.509 23.7866C105.949 23.7866 106.333 23.6259 106.65 23.31C106.966 22.9934 107.126 22.6095 107.126 22.1687C107.126 21.7291 106.966 21.3452 106.65 21.0287C106.334 20.7121 105.948 20.552 105.509 20.552Z" fill="#261961"/>
<path d="M122.971 27.5016C121.514 26.0457 119.733 25.3063 117.679 25.3063C115.842 25.3063 114.224 25.8942 112.864 27.0571V26.6429C112.864 26.2769 112.733 25.9598 112.472 25.6989C111.951 25.1771 111.102 25.1783 110.582 25.6989C110.321 25.9598 110.189 26.2775 110.189 26.6429V40.0642C110.189 40.4315 110.321 40.7486 110.582 41.0083C111.102 41.5301 111.951 41.5301 112.47 41.0095C112.733 40.7486 112.864 40.4309 112.864 40.0642V32.795C112.864 31.4726 113.339 30.327 114.276 29.391C115.211 28.455 116.356 27.9808 117.679 27.9808C119.001 27.9808 120.145 28.4556 121.081 29.3922C122.019 30.3282 122.493 31.4726 122.493 32.795V40.0642C122.493 40.4327 122.624 40.7499 122.885 41.0083C123.145 41.2692 123.463 41.4021 123.829 41.4021C124.196 41.4021 124.514 41.2692 124.775 41.0095C125.034 40.7486 125.167 40.4309 125.167 40.0642V32.795C125.168 30.74 124.429 28.9601 122.971 27.5016Z" fill="#261961"/>
<path d="M129.312 18.8148H133.785C135.332 18.8148 136.651 19.3595 137.741 20.4501C138.831 21.5406 139.377 22.86 139.377 24.4068C139.377 25.9536 138.831 27.2723 137.741 28.3623C138.43 28.6893 139.069 29.1412 139.656 29.7181C140.961 31.0331 141.614 32.617 141.614 34.4717C141.614 36.3264 140.959 37.9085 139.65 39.2185C138.34 40.5273 136.758 41.1821 134.903 41.1821H129.311C129.003 41.1821 128.74 41.0732 128.522 40.8538C128.302 40.6349 128.192 40.3722 128.192 40.0643V19.9332C128.192 19.6253 128.302 19.362 128.522 19.1437C128.741 18.9236 129.004 18.8148 129.312 18.8148ZM130.43 21.051V27.762H133.786C134.708 27.762 135.499 27.4324 136.155 26.7753C136.812 26.1181 137.141 25.3286 137.141 24.4062C137.141 23.4838 136.812 22.6936 136.155 22.0358C135.499 21.3793 134.708 21.0504 133.786 21.0504L130.43 21.051ZM130.43 29.9987V38.9465H134.904C136.143 38.9465 137.198 38.5106 138.07 37.6389C138.942 36.7685 139.377 35.7131 139.377 34.4729C139.377 33.234 138.942 32.1774 138.07 31.3069C137.198 30.4352 136.143 29.9994 134.904 29.9994L130.43 29.9987Z" fill="#8497A8"/>
<path d="M159.536 33.3545C159.536 35.5171 158.772 37.3619 157.243 38.8908C155.714 40.4197 153.869 41.1826 151.706 41.1826C149.544 41.1826 147.699 40.4197 146.17 38.8908C144.641 37.3619 143.877 35.5171 143.877 33.3545C143.877 31.1919 144.641 29.3471 146.17 27.8182C147.699 26.2893 149.544 25.5251 151.706 25.5251C153.869 25.5251 155.714 26.2893 157.243 27.8182C158.772 29.3471 159.536 31.1913 159.536 33.3545ZM151.706 27.7625C150.16 27.7625 148.841 28.3072 147.751 29.3978C146.659 30.4884 146.115 31.8077 146.115 33.3545C146.115 34.9013 146.66 36.22 147.751 37.31C148.841 38.4006 150.16 38.9459 151.706 38.9459C153.253 38.9459 154.573 38.4 155.663 37.31C156.753 36.22 157.298 34.9013 157.298 33.3545C157.298 31.8077 156.754 30.4877 155.663 29.3978C154.572 28.3078 153.253 27.7625 151.706 27.7625Z" fill="#8497A8"/>
<path d="M176.556 33.3545C176.556 35.5171 175.792 37.3619 174.263 38.8908C172.736 40.4197 170.89 41.1826 168.728 41.1826C166.566 41.1826 164.721 40.4197 163.192 38.8908C161.663 37.3619 160.899 35.5171 160.899 33.3545C160.899 31.1919 161.663 29.3471 163.192 27.8182C164.721 26.2893 166.566 25.5251 168.728 25.5251C170.89 25.5251 172.736 26.2893 174.263 27.8182C175.792 29.3465 176.556 31.1913 176.556 33.3545ZM168.728 27.7625C167.18 27.7625 165.862 28.3072 164.772 29.3978C163.682 30.4884 163.136 31.8077 163.136 33.3545C163.136 34.9013 163.682 36.22 164.772 37.31C165.862 38.4 167.18 38.9459 168.728 38.9459C170.275 38.9459 171.594 38.4 172.684 37.31C173.774 36.22 174.32 34.9013 174.32 33.3545C174.32 31.8077 173.774 30.4877 172.684 29.3978C171.594 28.3078 170.275 27.7625 168.728 27.7625Z" fill="#8497A8"/>
<path d="M181.549 31.8436L191.014 25.6927C191.191 25.5802 191.392 25.5252 191.615 25.5252C191.923 25.5252 192.187 25.6352 192.405 25.8535C192.624 26.0729 192.733 26.3363 192.733 26.6429C192.733 26.9508 192.626 27.2117 192.412 27.4269C192.356 27.4825 192.304 27.5295 192.258 27.566L185.771 31.7885L192.427 39.2822C192.631 39.5054 192.733 39.7663 192.733 40.0649C192.733 40.3728 192.623 40.6361 192.405 40.8544C192.186 41.0739 191.923 41.1827 191.615 41.1827C191.308 41.1827 191.037 41.0714 190.805 40.8482L183.856 33.0188L181.55 34.515V40.0649C181.55 40.3728 181.44 40.6361 181.222 40.8544C181.002 41.0739 180.739 41.1827 180.432 41.1827C180.124 41.1827 179.861 41.0739 179.643 40.8544C179.423 40.6355 179.313 40.3728 179.313 40.0649V19.9332C179.313 19.6253 179.423 19.362 179.643 19.1437C179.862 18.9242 180.124 18.8154 180.432 18.8154C180.739 18.8154 181.002 18.9242 181.222 19.1437C181.441 19.3626 181.55 19.6253 181.55 19.9332V31.8436H181.549Z" fill="#8497A8"/>
<path d="M50.7573 33.516C50.6318 33.516 50.5063 33.5036 50.3796 33.4795L33.8708 30.2758L42.0259 15.5648C42.5527 14.6121 43.7539 14.2678 44.7054 14.7958C45.6581 15.3237 46.0024 16.5237 45.4745 17.4764L39.9511 27.4393L51.1301 29.6081C52.199 29.8158 52.8964 30.8508 52.6899 31.9191C52.5069 32.8619 51.6822 33.516 50.7573 33.516Z" fill="#8497A8"/>
<path d="M33.072 52.4692C32.0841 52.4692 31.2315 51.7292 31.1159 50.7246L29.179 34.0198L45.6674 37.3453C46.7351 37.5604 47.4256 38.5997 47.2092 39.6674C46.9941 40.7363 45.9548 41.4244 44.8871 41.2105L33.7211 38.9583L35.0324 50.2702C35.1567 51.3508 34.3827 52.3301 33.3007 52.4556C33.2241 52.4643 33.1468 52.4692 33.072 52.4692Z" fill="#261961"/>
<path d="M31.6977 25.171L20.2145 12.8773C19.4708 12.0817 19.5128 10.8341 20.3085 10.0916C21.1042 9.34781 22.3518 9.38985 23.0955 10.1855L30.8729 18.5113L36.3802 8.54719C36.9082 7.59449 38.107 7.24766 39.0597 7.77563C40.0124 8.30237 40.358 9.50114 39.8312 10.4551L31.6977 25.171Z" fill="#8497A8"/>
<path d="M9.25686 32.6671C8.51189 32.6671 7.79844 32.243 7.46521 31.5221C7.00895 30.5329 7.4411 29.362 8.42904 28.9057L18.7703 24.1305L11.0331 15.7756C10.2943 14.9775 10.3413 13.7299 11.1406 12.9898C11.9388 12.2498 13.1864 12.298 13.9264 13.0962L25.3527 25.4343L10.0816 32.486C9.81451 32.609 9.53322 32.6671 9.25686 32.6671Z" fill="#8497A8"/>
<path d="M24.2201 49.728C23.2358 49.728 22.3858 48.993 22.2652 47.9914L20.9088 36.6783L10.5787 41.4634C9.59072 41.9209 8.41854 41.4925 7.96104 40.5033C7.50355 39.5154 7.93322 38.3432 8.92117 37.8857L24.178 30.818L26.1799 47.5215C26.3103 48.6022 25.5388 49.584 24.4581 49.7132C24.3784 49.7231 24.2986 49.728 24.2201 49.728Z" fill="#8497A8"/>
</svg>
