<svg width="46" height="46" viewBox="0 0 46 46" fill="none" xmlns="http://www.w3.org/2000/svg">
<path d="M43.7573 26.516C43.6318 26.516 43.5063 26.5036 43.3796 26.4795L26.8708 23.2758L35.0259 8.56484C35.5527 7.61214 36.7539 7.26778 37.7054 7.79575C38.6581 8.32373 39.0024 9.52373 38.4745 10.4764L32.9511 20.4393L44.1301 22.6081C45.199 22.8158 45.8964 23.8508 45.6899 24.9191C45.5069 25.8619 44.6822 26.516 43.7573 26.516Z" fill="#8497A8"/>
<path d="M26.072 45.4692C25.0841 45.4692 24.2315 44.7292 24.1159 43.7246L22.179 27.0198L38.6674 30.3453C39.7351 30.5604 40.4256 31.5997 40.2092 32.6674C39.9941 33.7363 38.9548 34.4244 37.8871 34.2105L26.7211 31.9583L28.0324 43.2702C28.1567 44.3508 27.3827 45.3301 26.3007 45.4556C26.2241 45.4643 26.1468 45.4692 26.072 45.4692Z" fill="#261961"/>
<path d="M24.6977 18.171L13.2145 5.87733C12.4708 5.08166 12.5128 3.83406 13.3085 3.09155C14.1042 2.34781 15.3518 2.38985 16.0955 3.18553L23.8729 11.5113L29.3802 1.54719C29.9082 0.594489 31.107 0.247657 32.0597 0.775633C33.0124 1.30237 33.358 2.50114 32.8312 3.45508L24.6977 18.171Z" fill="#8497A8"/>
<path d="M2.25686 25.6671C1.51189 25.6671 0.798439 25.243 0.465209 24.5221C0.00894943 23.5329 0.441098 22.362 1.42904 21.9057L11.7703 17.1305L4.03306 8.77561C3.29427 7.97746 3.34125 6.72986 4.14063 5.98982C4.93878 5.24979 6.18638 5.29802 6.92641 6.09616L18.3527 18.4343L3.08159 25.486C2.81451 25.609 2.53322 25.6671 2.25686 25.6671Z" fill="#8497A8"/>
<path d="M17.2201 42.728C16.2358 42.728 15.3858 41.993 15.2652 40.9914L13.9088 29.6783L3.57866 34.4634C2.59072 34.9209 1.41854 34.4925 0.961042 33.5033C0.503546 32.5154 0.933221 31.3432 1.92117 30.8857L17.178 23.818L19.1799 40.5215C19.3103 41.6022 18.5388 42.584 17.4581 42.7132C17.3784 42.7231 17.2986 42.728 17.2201 42.728Z" fill="#8497A8"/>
</svg>
