<svg width="300" height="300" viewBox="0 0 300 300" fill="none" xmlns="http://www.w3.org/2000/svg">
<path d="M193.75 6.25H243.75C243.75 6.25 256.25 6.25 256.25 18.75V31.25C256.25 31.25 256.25 43.75 243.75 43.75H193.75C193.75 43.75 181.25 43.75 181.25 31.25V18.75C181.25 18.75 181.25 6.25 193.75 6.25Z" fill="#8497A8"/>
<path d="M193.75 6.25C190.435 6.25 187.255 7.56696 184.911 9.91117C182.567 12.2554 181.25 15.4348 181.25 18.75V31.25C181.25 34.5652 182.567 37.7446 184.911 40.0888C187.255 42.433 190.435 43.75 193.75 43.75H196.375L233.875 6.25H193.75Z" fill="#CFDCE7"/>
<path d="M118.75 81.2502V25.0002C118.75 24.0509 118.533 23.114 118.117 22.2609C117.7 21.4077 117.095 20.6606 116.347 20.0762C115.599 19.4918 114.727 19.0856 113.799 18.8884C112.87 18.6911 111.908 18.708 110.987 18.9377L73.4873 28.3127C72.1346 28.6501 70.9336 29.4301 70.0752 30.5286C69.2167 31.6271 68.7502 32.9811 68.7498 34.3752V81.2502H118.75Z" fill="#CFDCE7"/>
<path d="M117.187 21.1002C116.94 20.7299 116.66 20.3827 116.35 20.0627C115.6 19.4802 114.728 19.0761 113.798 18.8812C112.869 18.6863 111.908 18.7056 110.987 18.9377L73.4873 28.3127C72.1346 28.6501 70.9336 29.43 70.0752 30.5285C69.2167 31.627 68.7502 32.981 68.7498 34.3752V69.5377L117.187 21.1002Z" fill="white"/>
<path d="M293.376 231.25H6.62555C6.90388 230.355 7.23787 229.478 7.62555 228.625L43.7505 156.25H256.251L292.376 228.625C292.763 229.478 293.097 230.355 293.376 231.25Z" fill="#CFDCE7"/>
<path d="M6.62555 231.25C6.90388 230.355 7.23787 229.478 7.62555 228.625L43.7506 156.25H256.251L6.62555 231.25Z" fill="white"/>
<path d="M293.376 231.25H6.62555C6.90388 230.355 7.23787 229.478 7.62555 228.625L43.7505 156.25H256.251L292.376 228.625C292.763 229.478 293.097 230.355 293.376 231.25Z" stroke="#271962" stroke-width="4" stroke-linecap="round" stroke-linejoin="round"/>
<path d="M293.75 234.25V281.25C293.75 284.565 292.433 287.745 290.089 290.089C287.744 292.433 284.565 293.75 281.25 293.75H18.7497C15.4345 293.75 12.2551 292.433 9.91086 290.089C7.56666 287.745 6.24969 284.565 6.24969 281.25V234.25C6.25111 233.238 6.37705 232.231 6.62469 231.25H293.375C293.622 232.231 293.748 233.238 293.75 234.25Z" fill="#8497A8"/>
<path d="M293.375 231.25H6.62469C6.37705 232.231 6.25111 233.238 6.24969 234.25V259.25C6.25111 258.238 6.37705 257.231 6.62469 256.25H293.375C293.622 257.231 293.748 258.238 293.75 259.25V234.25C293.748 233.238 293.622 232.231 293.375 231.25Z" fill="#8497A8"/>
<path d="M293.75 234.25V281.25C293.75 284.565 292.433 287.745 290.089 290.089C287.744 292.433 284.565 293.75 281.25 293.75H18.7497C15.4345 293.75 12.2551 292.433 9.91086 290.089C7.56666 287.745 6.24969 284.565 6.24969 281.25V234.25C6.25111 233.238 6.37705 232.231 6.62469 231.25H293.375C293.622 232.231 293.748 233.238 293.75 234.25Z" stroke="#271962" stroke-width="4" stroke-linecap="round" stroke-linejoin="round"/>
<path d="M106.25 268.75V262.5C106.25 260.842 106.909 259.253 108.081 258.081C109.253 256.908 110.842 256.25 112.5 256.25H187.5C189.158 256.25 190.747 256.908 191.919 258.081C193.092 259.253 193.75 260.842 193.75 262.5V268.75" stroke="#271962" stroke-width="4" stroke-linecap="round" stroke-linejoin="round"/>
<path d="M256.25 156.25H43.7499V93.75C43.7499 90.4348 45.0669 87.2554 47.4111 84.9112C49.7553 82.567 52.9347 81.25 56.2499 81.25H243.75C247.065 81.25 250.245 82.567 252.589 84.9112C254.933 87.2554 256.25 90.4348 256.25 93.75V156.25Z" fill="#CFDCE7" stroke="#271962" stroke-width="4" stroke-linecap="round" stroke-linejoin="round"/>
<path d="M74.9998 106.25H131.25C131.25 106.25 137.5 106.25 137.5 112.5V125C137.5 125 137.5 131.25 131.25 131.25H74.9998C74.9998 131.25 68.7498 131.25 68.7498 125V112.5C68.7498 112.5 68.7498 106.25 74.9998 106.25Z" fill="#8497A8" stroke="#271962" stroke-width="4" stroke-linecap="round" stroke-linejoin="round"/>
<path d="M175 118.75H231.25" stroke="#271962" stroke-width="4" stroke-linecap="round" stroke-linejoin="round"/>
<path d="M118.75 56.2502V25.0002C118.75 24.0509 118.533 23.114 118.117 22.2609C117.7 21.4077 117.095 20.6606 116.347 20.0762C115.599 19.4918 114.727 19.0856 113.799 18.8884C112.87 18.6911 111.908 18.708 110.987 18.9377L73.4873 28.3127C72.1346 28.6501 70.9336 29.4301 70.0752 30.5286C69.2167 31.6271 68.7502 32.9811 68.7498 34.3752V56.2502" stroke="#271962" stroke-width="4" stroke-linecap="round" stroke-linejoin="round"/>
<path d="M193.75 6.25H243.75C243.75 6.25 256.25 6.25 256.25 18.75V31.25C256.25 31.25 256.25 43.75 243.75 43.75H193.75C193.75 43.75 181.25 43.75 181.25 31.25V18.75C181.25 18.75 181.25 6.25 193.75 6.25Z" stroke="#271962" stroke-width="4" stroke-linecap="round" stroke-linejoin="round"/>
<path d="M218.75 43.75V81.25" stroke="#271962" stroke-width="4" stroke-linecap="round" stroke-linejoin="round"/>
<path d="M87.5003 181.25H100" stroke="#271962" stroke-width="4" stroke-linecap="round" stroke-linejoin="round"/>
<path d="M125 181.25H137.5" stroke="#271962" stroke-width="4" stroke-linecap="round" stroke-linejoin="round"/>
<path d="M162.5 181.25H175" stroke="#271962" stroke-width="4" stroke-linecap="round" stroke-linejoin="round"/>
<path d="M200 181.25H212.5" stroke="#271962" stroke-width="4" stroke-linecap="round" stroke-linejoin="round"/>
<path d="M50.0001 206.25H62.5001" stroke="#271962" stroke-width="4" stroke-linecap="round" stroke-linejoin="round"/>
<path d="M87.5003 206.25H100" stroke="#271962" stroke-width="4" stroke-linecap="round" stroke-linejoin="round"/>
<path d="M125 206.25H137.5" stroke="#271962" stroke-width="4" stroke-linecap="round" stroke-linejoin="round"/>
<path d="M162.5 206.25H175" stroke="#271962" stroke-width="4" stroke-linecap="round" stroke-linejoin="round"/>
<path d="M200 206.25H212.5" stroke="#271962" stroke-width="4" stroke-linecap="round" stroke-linejoin="round"/>
<path d="M237.5 206.25H250" stroke="#271962" stroke-width="4" stroke-linecap="round" stroke-linejoin="round"/>
<path d="M293.493 231.25H293.375" stroke="#271962" stroke-width="4" stroke-linecap="round" stroke-linejoin="round"/>
<path d="M6.61923 231.25H6.50052" stroke="#271962" stroke-width="4" stroke-linecap="round" stroke-linejoin="round"/>
</svg>
