<svg width="300" height="300" viewBox="0 0 300 300" fill="none" xmlns="http://www.w3.org/2000/svg">
<path d="M193.75 293.75C201.958 293.75 210.085 292.133 217.668 288.992C225.251 285.852 232.141 281.248 237.944 275.444C243.748 269.641 248.352 262.751 251.492 255.168C254.633 247.585 256.25 239.458 256.25 231.25V31.25C256.234 24.6247 253.594 18.2754 248.909 13.5906C244.225 8.90572 237.875 6.2665 231.25 6.25H68.75C62.1247 6.2665 55.7754 8.90572 51.0906 13.5906C46.4057 18.2754 43.7665 24.6247 43.75 31.25V268.75C43.7665 275.375 46.4057 281.725 51.0906 286.409C55.7754 291.094 62.1247 293.733 68.75 293.75H193.75Z" fill="white"/>
<path d="M193.75 256.25H68.75C62.1247 256.233 55.7754 253.594 51.0906 248.909C46.4057 244.225 43.7665 237.875 43.75 231.25V268.75C43.7665 275.375 46.4057 281.725 51.0906 286.409C55.7754 291.094 62.1247 293.733 68.75 293.75H193.75C201.958 293.75 210.085 292.133 217.668 288.992C225.251 285.852 232.141 281.248 237.944 275.444C243.748 269.641 248.352 262.751 251.492 255.168C254.633 247.585 256.25 239.458 256.25 231.25V193.75C256.25 201.958 254.633 210.085 251.492 217.668C248.352 225.251 243.748 232.141 237.944 237.944C232.141 243.748 225.251 248.352 217.668 251.492C210.085 254.633 201.958 256.25 193.75 256.25Z" fill="#B1BECA"/>
<path d="M193.75 293.75C201.958 293.75 210.085 292.133 217.668 288.992C225.251 285.852 232.141 281.248 237.944 275.444C243.748 269.641 248.352 262.751 251.492 255.168C254.633 247.585 256.25 239.458 256.25 231.25V31.25C256.233 24.6247 253.594 18.2754 248.909 13.5906C244.225 8.90572 237.875 6.2665 231.25 6.25H68.75C62.1247 6.2665 55.7754 8.90572 51.0906 13.5906C46.4057 18.2754 43.7665 24.6247 43.75 31.25V268.75C43.7665 275.375 46.4057 281.725 51.0906 286.409C55.7754 291.094 62.1247 293.733 68.75 293.75H193.75Z" stroke="#271962" stroke-width="4" stroke-linecap="round" stroke-linejoin="round"/>
<path d="M93.7502 43.75H206.25C206.25 43.75 218.75 43.75 218.75 56.25V131.25C218.75 131.25 218.75 143.75 206.25 143.75H93.7502C93.7502 143.75 81.2502 143.75 81.2502 131.25V56.25C81.2502 56.25 81.2502 43.75 93.7502 43.75Z" fill="#8497A8"/>
<path d="M93.7502 143.75L193.75 43.75H93.7502C90.435 43.75 87.2556 45.067 84.9114 47.4112C82.5672 49.7554 81.2502 52.9348 81.2502 56.25V131.25C81.2502 134.565 82.5672 137.745 84.9114 140.089C87.2556 142.433 90.435 143.75 93.7502 143.75Z" fill="#B1BECA"/>
<path d="M93.7502 43.75H206.25C206.25 43.75 218.75 43.75 218.75 56.25V131.25C218.75 131.25 218.75 143.75 206.25 143.75H93.7502C93.7502 143.75 81.2502 143.75 81.2502 131.25V56.25C81.2502 56.25 81.2502 43.75 93.7502 43.75Z" stroke="#271962" stroke-width="4" stroke-linecap="round" stroke-linejoin="round"/>
<path d="M118.75 206.25H68.7499" stroke="#271962" stroke-width="4" stroke-linecap="round" stroke-linejoin="round"/>
<path d="M93.7498 181.25V231.25" stroke="#271962" stroke-width="4" stroke-linecap="round" stroke-linejoin="round"/>
<path d="M156.25 262.5L168.75 256.25" stroke="#271962" stroke-width="4" stroke-linecap="round" stroke-linejoin="round"/>
<path d="M118.75 262.5L131.25 256.25" stroke="#271962" stroke-width="4" stroke-linecap="round" stroke-linejoin="round"/>
<path d="M225 184.375C225.829 184.375 226.624 184.704 227.21 185.29C227.796 185.876 228.125 186.671 228.125 187.5" stroke="#271962" stroke-width="4" stroke-linecap="round" stroke-linejoin="round"/>
<path d="M221.875 187.5C221.875 186.671 222.204 185.876 222.79 185.29C223.376 184.704 224.171 184.375 225 184.375" stroke="#271962" stroke-width="4" stroke-linecap="round" stroke-linejoin="round"/>
<path d="M225 190.625C224.171 190.625 223.376 190.296 222.79 189.71C222.204 189.124 221.875 188.329 221.875 187.5" stroke="#271962" stroke-width="4" stroke-linecap="round" stroke-linejoin="round"/>
<path d="M228.125 187.5C228.125 188.329 227.796 189.124 227.21 189.71C226.624 190.296 225.829 190.625 225 190.625" stroke="#271962" stroke-width="4" stroke-linecap="round" stroke-linejoin="round"/>
<path d="M187.5 203.125C188.329 203.125 189.124 203.454 189.71 204.04C190.296 204.626 190.625 205.421 190.625 206.25" stroke="#271962" stroke-width="4" stroke-linecap="round" stroke-linejoin="round"/>
<path d="M184.375 206.25C184.375 205.421 184.705 204.626 185.291 204.04C185.877 203.454 186.672 203.125 187.5 203.125" stroke="#271962" stroke-width="4" stroke-linecap="round" stroke-linejoin="round"/>
<path d="M187.5 209.375C186.672 209.375 185.877 209.046 185.291 208.46C184.705 207.874 184.375 207.079 184.375 206.25" stroke="#271962" stroke-width="4" stroke-linecap="round" stroke-linejoin="round"/>
<path d="M190.625 206.25C190.625 207.079 190.296 207.874 189.71 208.46C189.124 209.046 188.329 209.375 187.5 209.375" stroke="#271962" stroke-width="4" stroke-linecap="round" stroke-linejoin="round"/>
</svg>
