<svg width="300" height="300" viewBox="0 0 300 300" fill="none" xmlns="http://www.w3.org/2000/svg">
<path d="M68.75 143.75C68.75 165.299 77.3102 185.965 92.5476 201.202C107.785 216.44 128.451 225 150 225C171.549 225 192.215 216.44 207.452 201.202C222.69 185.965 231.25 165.299 231.25 143.75C231.25 122.201 222.69 101.535 207.452 86.2976C192.215 71.0602 171.549 62.5 150 62.5C128.451 62.5 107.785 71.0602 92.5476 86.2976C77.3102 101.535 68.75 122.201 68.75 143.75Z" fill="#B1BECA"/>
<path d="M150 62.5C155.563 62.5 161 60.8505 165.625 57.7601C170.251 54.6697 173.855 50.2772 175.984 45.138C178.113 39.9988 178.67 34.3438 177.585 28.8881C176.499 23.4324 173.821 18.421 169.887 14.4876C165.954 10.5543 160.943 7.87564 155.487 6.79043C150.031 5.70522 144.376 6.26219 139.237 8.3909C134.098 10.5196 129.705 14.1245 126.615 18.7496C123.525 23.3747 121.875 28.8124 121.875 34.375C121.875 41.8342 124.838 48.9879 130.113 54.2624C135.387 59.5368 142.541 62.5 150 62.5Z" fill="#B1BECA" stroke="#271962" stroke-width="4" stroke-linecap="round" stroke-linejoin="round"/>
<path d="M206.25 118.75C203.063 106.251 195.803 95.1693 185.617 87.2548C175.431 79.3403 162.899 75.0439 150 75.0439C137.101 75.0439 124.569 79.3403 114.383 87.2548C104.197 95.1693 96.9373 106.251 93.75 118.75H206.25Z" fill="#8497A8" stroke="#271962" stroke-width="4" stroke-linecap="round" stroke-linejoin="round"/>
<path d="M62.5 237.5C68.0626 237.5 73.5003 235.85 78.1254 232.76C82.7505 229.67 86.3554 225.277 88.4841 220.138C90.6128 214.999 91.1698 209.344 90.0846 203.888C88.9994 198.432 86.3207 193.421 82.3874 189.488C78.454 185.554 73.4426 182.876 67.9869 181.79C62.5312 180.705 56.8762 181.262 51.737 183.391C46.5979 185.52 42.2053 189.124 39.1149 193.75C36.0245 198.375 34.375 203.812 34.375 209.375C34.375 213.068 35.1025 216.726 36.5159 220.138C37.9293 223.55 40.001 226.651 42.6126 229.262C45.2243 231.874 48.3247 233.946 51.737 235.359C55.1493 236.773 58.8066 237.5 62.5 237.5Z" fill="#B1BECA" stroke="#271962" stroke-width="4" stroke-linecap="round" stroke-linejoin="round"/>
<path d="M118.75 293.75C115.563 281.251 108.303 270.169 98.1171 262.255C87.9312 254.34 75.3993 250.044 62.5 250.044C49.6007 250.044 37.0688 254.34 26.8829 262.255C16.697 270.169 9.4373 281.251 6.25 293.75H118.75Z" fill="#8497A8" stroke="#271962" stroke-width="4" stroke-linecap="round" stroke-linejoin="round"/>
<path d="M237.5 237.5C243.063 237.5 248.5 235.85 253.125 232.76C257.751 229.67 261.355 225.277 263.484 220.138C265.613 214.999 266.17 209.344 265.085 203.888C263.999 198.432 261.321 193.421 257.387 189.488C253.454 185.554 248.443 182.876 242.987 181.79C237.531 180.705 231.876 181.262 226.737 183.391C221.598 185.52 217.205 189.124 214.115 193.75C211.025 198.375 209.375 203.812 209.375 209.375C209.375 213.068 210.102 216.726 211.516 220.138C212.929 223.55 215.001 226.651 217.613 229.262C220.224 231.874 223.325 233.946 226.737 235.359C230.149 236.773 233.807 237.5 237.5 237.5Z" fill="#B1BECA" stroke="#271962" stroke-width="4" stroke-linecap="round" stroke-linejoin="round"/>
<path d="M293.75 293.75C290.563 281.251 283.303 270.169 273.117 262.255C262.931 254.34 250.399 250.044 237.5 250.044C224.601 250.044 212.069 254.34 201.883 262.255C191.697 270.169 184.437 281.251 181.25 293.75H293.75Z" fill="#8497A8" stroke="#271962" stroke-width="4" stroke-linecap="round" stroke-linejoin="round"/>
<path d="M187.5 236.475C163.441 246.175 136.559 246.175 112.5 236.475" stroke="#271962" stroke-width="4" stroke-linecap="round" stroke-linejoin="round"/>
<path d="M206.25 61.0752C221.476 71.4504 233.544 85.8251 241.126 102.617C248.708 119.409 251.511 137.968 249.225 156.25" stroke="#271962" stroke-width="4" stroke-linecap="round" stroke-linejoin="round"/>
<path d="M93.75 61.0752C78.5243 71.4504 66.4561 85.8251 58.8739 102.617C51.2916 119.409 48.4892 137.968 50.775 156.25" stroke="#271962" stroke-width="4" stroke-linecap="round" stroke-linejoin="round"/>
</svg>
