<svg width="300" height="300" viewBox="0 0 300 300" fill="none" xmlns="http://www.w3.org/2000/svg">
<path d="M88.15 255.55C75.7375 267.962 37.5 268.75 37.5 268.75C37.5 268.75 40.375 232.6 52.775 220.2C65.175 207.8 78.1 218.95 83.7125 224.612C89.325 230.275 100.55 243.137 88.15 255.55Z" fill="#8497A8" stroke="#271962" stroke-width="4" stroke-linecap="round" stroke-linejoin="round"/>
<path d="M243 63.2625L256.25 50" stroke="#271962" stroke-width="4" stroke-linecap="round" stroke-linejoin="round"/>
<path d="M161.337 193.75L119.212 222.375L101.587 204.625L83.9625 187L112.587 144.875L161.337 193.75Z" fill="#8497A8" stroke="#271962" stroke-width="4" stroke-linecap="round" stroke-linejoin="round"/>
<path d="M229.713 147.25L161.337 193.75L112.587 144.875L159.088 76.4999C162.717 70.5505 167.948 65.7426 174.182 62.6258C180.415 59.509 187.4 58.2092 194.338 58.8749L242.963 63.2499L247.463 111.875C248.119 118.843 246.803 125.855 243.664 132.11C240.526 138.365 235.691 143.612 229.713 147.25Z" fill="#B1BECA"/>
<path d="M247.5 111.875L243 63.2624L194.375 58.8749C187.438 58.2092 180.453 59.509 174.219 62.6258C167.986 65.7426 162.755 70.5505 159.125 76.4999L147.275 93.9249C151.583 92.7052 156.077 92.2816 160.538 92.6749C174.188 93.9054 186.976 99.88 196.68 109.56C206.383 119.241 212.387 132.015 213.65 145.662C214.048 150.143 213.625 154.659 212.4 158.987L229.725 147.2C235.7 143.569 240.534 138.332 243.677 132.086C246.82 125.84 248.144 118.837 247.5 111.875Z" fill="white"/>
<path d="M229.713 147.25L161.337 193.75L112.587 144.875L159.088 76.4999C162.717 70.5505 167.948 65.7426 174.182 62.6258C180.415 59.509 187.4 58.2092 194.337 58.8749L242.963 63.2499L247.463 111.875C248.119 118.843 246.803 125.855 243.664 132.11C240.526 138.365 235.691 143.612 229.713 147.25Z" stroke="#271962" stroke-width="4" stroke-linecap="round" stroke-linejoin="round"/>
<path d="M112.5 144.913L99.025 139.763C94.5149 138.038 89.6017 137.656 84.879 138.663C80.1564 139.67 75.8265 142.023 72.4125 145.438L47.975 169.901C47.1746 170.7 46.6062 171.702 46.3304 172.799C46.0545 173.896 46.0817 175.048 46.4089 176.131C46.736 177.214 47.351 178.187 48.1882 178.948C49.0254 179.709 50.0533 180.228 51.1625 180.451L83.9 187.001L112.5 144.913Z" fill="#8497A8" stroke="#271962" stroke-width="4" stroke-linecap="round" stroke-linejoin="round"/>
<path d="M161.35 193.75L166.5 207.225C168.225 211.735 168.607 216.648 167.6 221.371C166.593 226.094 164.24 230.424 160.825 233.838L136.363 258.3C135.563 259.1 134.561 259.669 133.464 259.945C132.367 260.22 131.216 260.193 130.133 259.866C129.05 259.539 128.076 258.924 127.315 258.087C126.554 257.25 126.035 256.222 125.813 255.112L119.263 222.362L161.35 193.75Z" fill="#8497A8" stroke="#271962" stroke-width="4" stroke-linecap="round" stroke-linejoin="round"/>
<path d="M194.388 130.625C198.096 130.625 201.721 129.525 204.804 127.465C207.888 125.405 210.291 122.476 211.71 119.05C213.129 115.624 213.501 111.854 212.777 108.217C212.054 104.58 210.268 101.239 207.646 98.6168C205.024 95.9945 201.683 94.2088 198.045 93.4853C194.408 92.7618 190.638 93.1331 187.212 94.5523C183.786 95.9714 180.858 98.3746 178.797 101.458C176.737 104.541 175.638 108.167 175.638 111.875C175.638 116.848 177.613 121.617 181.129 125.133C184.646 128.65 189.415 130.625 194.388 130.625Z" fill="#8497A8" stroke="#271962" stroke-width="4" stroke-linecap="round" stroke-linejoin="round"/>
</svg>
