<svg width="300" height="300" viewBox="0 0 300 300" fill="none" xmlns="http://www.w3.org/2000/svg">
<path d="M112.147 74.4284L111.38 76.9999H114.063H185.937H188.62L187.853 74.4284C185.996 68.1981 182.611 62.464 177.931 57.7834L176.517 59.1976L177.931 57.7834C170.523 50.3756 160.476 46.2141 150 46.2141C139.524 46.2141 129.477 50.3756 122.069 57.7834L123.483 59.1976L122.069 57.7834C117.389 62.464 114.004 68.1981 112.147 74.4284ZM81.186 76.9999H82.8987L83.1622 75.3075C85.3553 61.2213 91.9631 48.0895 102.169 37.8834C114.855 25.1979 132.06 18.0713 150 18.0713C167.94 18.0713 185.145 25.1979 197.831 37.8834C208.037 48.0895 214.646 61.2214 216.837 75.3073L217.101 76.9999H218.814H246.429C274.91 76.9999 298 100.089 298 128.571V246.428C298 274.91 274.91 298 246.429 298H53.5714C25.0894 298 2 274.91 2 246.428V128.571C2 100.089 25.0894 76.9999 53.5714 76.9999H81.186Z" fill="#B1BECA" stroke="#271962" stroke-width="4"/>
<path d="M220.661 298V76.9999H243.447V298H220.661ZM56.5524 76.9999H79.3381V298H56.5524V76.9999Z" fill="#8497A8" stroke="#271962" stroke-width="4"/>
</svg>
