<svg width="80" height="80" viewBox="0 0 80 80" fill="none" xmlns="http://www.w3.org/2000/svg">
<path d="M22.56 20.5869L71.83 25.0536C72.7087 25.134 73.5196 25.5595 74.0851 26.2368C74.6506 26.9141 74.9244 27.788 74.8467 28.6669L70.91 71.8302C70.8702 72.2663 70.7449 72.6902 70.5413 73.0778C70.3377 73.4653 70.0597 73.809 69.7232 74.0892C69.3868 74.3693 68.9984 74.5804 68.5803 74.7104C68.1622 74.8404 67.7227 74.8868 67.2867 74.8469L16.3067 70.1802C15.8413 70.1386 15.39 69.9996 14.9819 69.7722C14.5737 69.5449 14.218 69.2343 13.9376 68.8606C13.6572 68.4869 13.4586 68.0584 13.3545 67.603C13.2504 67.1475 13.2432 66.6753 13.3333 66.2169L22.56 20.5869Z" fill="#8497A8"/>
<path d="M58.4734 5.13965C59.3574 5.13965 60.2053 5.49084 60.8304 6.11596C61.4555 6.74108 61.8067 7.58893 61.8067 8.47298V51.8063H5.14001V8.47298C5.14001 7.58893 5.4912 6.74108 6.11633 6.11596C6.74145 5.49084 7.58929 5.13965 8.47335 5.13965H58.4734Z" fill="#8497A8"/>
<path d="M5.14001 51.8063V8.47298C5.14001 7.58893 5.4912 6.74108 6.11633 6.11596C6.74145 5.49084 7.58929 5.13965 8.47335 5.13965H58.4733L5.14001 51.8063Z" fill="#B1BECA"/>
<path d="M58.4734 5.13965C59.3574 5.13965 60.2053 5.49084 60.8304 6.11596C61.4555 6.74108 61.8067 7.58893 61.8067 8.47298V51.8063H5.14001V8.47298C5.14001 7.58893 5.4912 6.74108 6.11633 6.11596C6.74145 5.49084 7.58929 5.13965 8.47335 5.13965H58.4734Z" stroke="#271962" stroke-linecap="round" stroke-linejoin="round"/>
<path d="M51.8167 51.8171L43.0533 29.9138C42.3867 28.2105 41.1967 28.1838 40.4367 29.8505L33.4833 45.1505L27.2833 37.7105C27.0635 37.386 26.7617 37.1255 26.4085 36.9554C26.0554 36.7854 25.6635 36.7119 25.2728 36.7424C24.882 36.7728 24.5063 36.9062 24.1838 37.129C23.8613 37.3517 23.6035 37.6558 23.4367 38.0105L15.15 51.8171" fill="#8497A8"/>
<path d="M61.8067 51.8066V58.4733C61.8067 59.3574 61.4555 60.2052 60.8304 60.8303C60.2053 61.4555 59.3574 61.8066 58.4734 61.8066H8.47335C7.58929 61.8066 6.74145 61.4555 6.11633 60.8303C5.4912 60.2052 5.14001 59.3574 5.14001 58.4733V51.8066H61.8067Z" fill="white"/>
<path d="M68.51 24.7529L71.8433 25.0529C72.7196 25.1366 73.5272 25.5635 74.0899 26.2405C74.6525 26.9174 74.9246 27.7895 74.8467 28.6663L70.91 71.8296C70.8702 72.2656 70.7449 72.6895 70.5413 73.0771C70.3377 73.4647 70.0597 73.8084 69.7232 74.0885C69.3868 74.3686 68.9984 74.5797 68.5803 74.7098C68.1622 74.8398 67.7227 74.8862 67.2867 74.8463L20.8133 70.6063" stroke="#271962" stroke-linecap="round" stroke-linejoin="round"/>
<path d="M15.15 20.1504C15.15 20.807 15.2793 21.4572 15.5306 22.0638C15.7819 22.6704 16.1502 23.2216 16.6145 23.6859C17.0788 24.1502 17.6299 24.5185 18.2366 24.7698C18.8432 25.0211 19.4934 25.1504 20.15 25.1504C20.8066 25.1504 21.4568 25.0211 22.0634 24.7698C22.67 24.5185 23.2212 24.1502 23.6855 23.6859C24.1498 23.2216 24.5181 22.6704 24.7694 22.0638C25.0207 21.4572 25.15 20.807 25.15 20.1504C25.15 19.4938 25.0207 18.8436 24.7694 18.237C24.5181 17.6303 24.1498 17.0791 23.6855 16.6149C23.2212 16.1506 22.67 15.7823 22.0634 15.531C21.4568 15.2797 20.8066 15.1504 20.15 15.1504C19.4934 15.1504 18.8432 15.2797 18.2366 15.531C17.6299 15.7823 17.0788 16.1506 16.6145 16.6149C16.1502 17.0791 15.7819 17.6303 15.5306 18.237C15.2793 18.8436 15.15 19.4938 15.15 20.1504Z" fill="#8497A8"/>
<path d="M51.8167 51.8171L43.0533 29.9138C42.3867 28.2105 41.1967 28.1838 40.4367 29.8505L33.4833 45.1505L27.2833 37.7105C27.0635 37.386 26.7617 37.1255 26.4085 36.9554C26.0554 36.7854 25.6635 36.7119 25.2728 36.7424C24.882 36.7728 24.5063 36.9062 24.1838 37.129C23.8613 37.3517 23.6035 37.6558 23.4367 38.0105L15.15 51.8171" stroke="#271962" stroke-linecap="round" stroke-linejoin="round"/>
<path d="M61.8067 51.8066V58.4733C61.8067 59.3574 61.4555 60.2052 60.8304 60.8303C60.2053 61.4555 59.3574 61.8066 58.4734 61.8066H8.47335C7.58929 61.8066 6.74145 61.4555 6.11633 60.8303C5.4912 60.2052 5.14001 59.3574 5.14001 58.4733V51.8066H61.8067Z" stroke="#271962" stroke-linecap="round" stroke-linejoin="round"/>
<path d="M15.15 20.1504C15.15 20.807 15.2793 21.4572 15.5306 22.0638C15.7819 22.6704 16.1502 23.2216 16.6145 23.6859C17.0788 24.1502 17.6299 24.5185 18.2366 24.7698C18.8432 25.0211 19.4934 25.1504 20.15 25.1504C20.8066 25.1504 21.4568 25.0211 22.0634 24.7698C22.67 24.5185 23.2212 24.1502 23.6855 23.6859C24.1498 23.2216 24.5181 22.6704 24.7694 22.0638C25.0207 21.4572 25.15 20.807 25.15 20.1504C25.15 19.4938 25.0207 18.8436 24.7694 18.237C24.5181 17.6303 24.1498 17.0791 23.6855 16.6149C23.2212 16.1506 22.67 15.7823 22.0634 15.531C21.4568 15.2797 20.8066 15.1504 20.15 15.1504C19.4934 15.1504 18.8432 15.2797 18.2366 15.531C17.6299 15.7823 17.0788 16.1506 16.6145 16.6149C16.1502 17.0791 15.7819 17.6303 15.5306 18.237C15.2793 18.8436 15.15 19.4938 15.15 20.1504Z" stroke="#271962" stroke-linecap="round" stroke-linejoin="round"/>
</svg>
