<svg width="311" height="301" viewBox="0 0 311 301" fill="none" xmlns="http://www.w3.org/2000/svg">
<path d="M71.2708 144.021C71.2708 166.36 80.145 187.784 95.941 203.58C111.737 219.376 133.161 228.25 155.5 228.25C177.839 228.25 199.263 219.376 215.059 203.58C230.855 187.784 239.729 166.36 239.729 144.021C239.729 121.682 230.855 100.258 215.059 84.4621C199.263 68.6661 177.839 59.792 155.5 59.792C133.161 59.792 111.737 68.6661 95.941 84.4621C80.145 100.258 71.2708 121.682 71.2708 144.021Z" fill="#B1BECA"/>
<path d="M155.5 59.792C161.267 59.792 166.904 58.082 171.698 54.8783C176.493 51.6746 180.23 47.121 182.437 41.7934C184.644 36.4658 185.221 30.6034 184.096 24.9477C182.971 19.2919 180.194 14.0967 176.117 10.0192C172.039 5.9416 166.844 3.16473 161.188 2.03973C155.532 0.914734 149.67 1.49212 144.342 3.69889C139.015 5.90566 134.461 9.64269 131.257 14.4374C128.054 19.2321 126.344 24.8692 126.344 30.6358C126.344 38.3685 129.416 45.7845 134.883 51.2523C140.351 56.7202 147.767 59.792 155.5 59.792Z" fill="#B1BECA" stroke="#271962" stroke-width="3" stroke-linecap="round" stroke-linejoin="round"/>
<path d="M213.812 118.104C210.508 105.146 202.982 93.6582 192.423 85.4535C181.864 77.2488 168.872 72.7949 155.5 72.7949C142.128 72.7949 129.136 77.2488 118.577 85.4535C108.018 93.6582 100.492 105.146 97.1875 118.104H213.812Z" fill="#8497A8" stroke="#271962" stroke-width="3" stroke-linecap="round" stroke-linejoin="round"/>
<path d="M64.7917 241.208C70.5582 241.208 76.1953 239.498 80.99 236.294C85.7847 233.091 89.5218 228.537 91.7285 223.209C93.9353 217.882 94.5127 212.019 93.3877 206.364C92.2627 200.708 89.4858 195.513 85.4082 191.435C81.3307 187.358 76.1355 184.581 70.4798 183.456C64.824 182.331 58.9617 182.908 53.634 185.115C48.3064 187.322 43.7528 191.059 40.5491 195.853C37.3454 200.648 35.6354 206.285 35.6354 212.052C35.6354 215.881 36.3896 219.672 37.8548 223.209C39.32 226.747 41.4677 229.961 44.1751 232.668C46.8825 235.376 50.0966 237.523 53.634 238.989C57.1714 240.454 60.9628 241.208 64.7917 241.208Z" fill="#B1BECA" stroke="#271962" stroke-width="3" stroke-linecap="round" stroke-linejoin="round"/>
<path d="M123.104 299.521C119.8 286.563 112.274 275.075 101.715 266.871C91.1553 258.666 78.1639 254.212 64.7917 254.212C51.4194 254.212 38.428 258.666 27.8686 266.871C17.3092 275.075 9.78333 286.563 6.47916 299.521H123.104Z" fill="#8497A8" stroke="#271962" stroke-width="3" stroke-linecap="round" stroke-linejoin="round"/>
<path d="M246.208 241.208C251.975 241.208 257.612 239.498 262.407 236.294C267.201 233.091 270.938 228.537 273.145 223.209C275.352 217.882 275.929 212.019 274.804 206.364C273.679 200.708 270.903 195.513 266.825 191.435C262.747 187.358 257.552 184.581 251.896 183.456C246.241 182.331 240.378 182.908 235.051 185.115C229.723 187.322 225.17 191.059 221.966 195.853C218.762 200.648 217.052 206.285 217.052 212.052C217.052 215.881 217.806 219.672 219.272 223.209C220.737 226.747 222.884 229.961 225.592 232.668C228.299 235.376 231.513 237.523 235.051 238.989C238.588 240.454 242.38 241.208 246.208 241.208Z" fill="#B1BECA" stroke="#271962" stroke-width="3" stroke-linecap="round" stroke-linejoin="round"/>
<path d="M304.521 299.521C301.217 286.563 293.691 275.075 283.131 266.871C272.572 258.666 259.581 254.212 246.208 254.212C232.836 254.212 219.845 258.666 209.285 266.871C198.726 275.075 191.2 286.563 187.896 299.521H304.521Z" fill="#8497A8" stroke="#271962" stroke-width="3" stroke-linecap="round" stroke-linejoin="round"/>
<path d="M194.375 240.146C169.434 250.201 141.566 250.201 116.625 240.146" stroke="#271962" stroke-width="3" stroke-linecap="round" stroke-linejoin="round"/>
<path d="M213.812 58.3145C229.597 69.07 242.107 83.9719 249.967 101.38C257.828 118.788 260.733 138.027 258.363 156.979" stroke="#271962" stroke-width="3" stroke-linecap="round" stroke-linejoin="round"/>
<path d="M97.1875 58.3145C81.4035 69.07 68.8929 83.9719 61.0326 101.38C53.1723 118.788 50.2671 138.027 52.6367 156.979" stroke="#271962" stroke-width="3" stroke-linecap="round" stroke-linejoin="round"/>
</svg>
