<svg width="80" height="80" viewBox="0 0 80 80" fill="none" xmlns="http://www.w3.org/2000/svg">
<path d="M45 68.333V11.6663C45 10.7823 44.6488 9.93444 44.0237 9.30932C43.3986 8.6842 42.5507 8.33301 41.6667 8.33301H4.99999C4.11593 8.33301 3.26809 8.6842 2.64297 9.30932C2.01785 9.93444 1.66666 10.7823 1.66666 11.6663V68.333C1.66666 69.2171 2.01785 70.0649 2.64297 70.69C3.26809 71.3152 4.11593 71.6663 4.99999 71.6663H41.6667C42.5507 71.6663 43.3986 71.3152 44.0237 70.69C44.6488 70.0649 45 69.2171 45 68.333Z" fill="#B1BECA"/>
<path d="M48.3333 1.66699H10V8.33366H41.6667C42.5507 8.33366 43.3986 8.68485 44.0237 9.30997C44.6488 9.93509 45 10.7829 45 11.667V26.667H51.6667V5.00033C51.6667 4.11627 51.3155 3.26842 50.6904 2.6433C50.0652 2.01818 49.2174 1.66699 48.3333 1.66699Z" fill="#B1BECA"/>
<path d="M38.3333 78.333L29.49 68.0697C29.0696 67.5647 28.7527 66.9819 28.5575 66.3545C28.3623 65.7271 28.2925 65.0674 28.3523 64.4131C28.4729 63.0916 29.1136 61.8721 30.1333 61.023C31.1531 60.1739 32.4684 59.7646 33.7899 59.8853C35.1114 60.0059 36.3309 60.6466 37.18 61.6663L45 71.0863V38.333C45 37.0069 45.5268 35.7352 46.4645 34.7975C47.4022 33.8598 48.6739 33.333 50 33.333C51.3261 33.333 52.5979 33.8598 53.5355 34.7975C54.4732 35.7352 55 37.0069 55 38.333V58.333H65C68.5362 58.333 71.9276 59.7378 74.4281 62.2383C76.9286 64.7387 78.3333 68.1301 78.3333 71.6663V78.333" fill="#B1BECA"/>
<path d="M38.3333 78.333L29.49 68.0697C29.0696 67.5647 28.7527 66.9819 28.5575 66.3545C28.3623 65.7272 28.2925 65.0674 28.3523 64.4131C28.4729 63.0916 29.1136 61.8721 30.1333 61.023C31.1531 60.1739 32.4684 59.7646 33.7899 59.8853C35.1114 60.0059 36.3309 60.6466 37.18 61.6663L45 71.0863V38.333C45 37.0069 45.5268 35.7352 46.4645 34.7975C47.4022 33.8598 48.6739 33.333 50 33.333C51.3261 33.333 52.5979 33.8598 53.5355 34.7975C54.4732 35.7352 55 37.0069 55 38.333V58.333H65C68.5362 58.333 71.9276 59.7378 74.4281 62.2383C76.9286 64.7387 78.3333 68.1301 78.3333 71.6663V78.333" stroke="#271962" stroke-linecap="round" stroke-linejoin="round"/>
<path d="M44.3333 9.76301C44.0363 9.32806 43.6389 8.97104 43.1747 8.72213C42.7106 8.47322 42.1933 8.33975 41.6667 8.33301H4.99999C4.11593 8.33301 3.26809 8.6842 2.64297 9.30932C2.01785 9.93444 1.66666 10.7823 1.66666 11.6663V52.4263L44.3333 9.76301Z" fill="white"/>
<path d="M45 26.6663V11.6663C45 10.7823 44.6488 9.93444 44.0237 9.30932C43.3986 8.6842 42.5507 8.33301 41.6667 8.33301H4.99999C4.11593 8.33301 3.26809 8.6842 2.64297 9.30932C2.01785 9.93444 1.66666 10.7823 1.66666 11.6663V68.333C1.66666 69.2171 2.01785 70.0649 2.64297 70.69C3.26809 71.3152 4.11593 71.6663 4.99999 71.6663H20" stroke="#271962" stroke-linecap="round" stroke-linejoin="round"/>
<path d="M51.6667 26.667V5.00033C51.6667 4.11627 51.3155 3.26842 50.6904 2.6433C50.0652 2.01818 49.2174 1.66699 48.3333 1.66699H10" stroke="#271962" stroke-linecap="round" stroke-linejoin="round"/>
<path d="M11.6667 51.667H35" stroke="#271962" stroke-linecap="round" stroke-linejoin="round"/>
<path d="M23.3333 29.9997C24.4871 29.9997 25.6149 29.6576 26.5742 29.0166C27.5334 28.3756 28.2811 27.4646 28.7226 26.3987C29.1641 25.3328 29.2797 24.1599 29.0546 23.0283C28.8295 21.8968 28.2739 20.8574 27.4581 20.0416C26.6423 19.2257 25.6029 18.6702 24.4714 18.4451C23.3398 18.22 22.1669 18.3355 21.101 18.777C20.0351 19.2186 19.1241 19.9662 18.4831 20.9255C17.8421 21.8848 17.5 23.0126 17.5 24.1663C17.4996 24.9325 17.6501 25.6913 17.9431 26.3992C18.2361 27.1071 18.6658 27.7503 19.2076 28.2921C19.7493 28.8339 20.3926 29.2635 21.1005 29.5565C21.8084 29.8495 22.5672 30.0001 23.3333 29.9997Z" fill="#B1BECA" stroke="#271962" stroke-linecap="round" stroke-linejoin="round"/>
<path d="M35 41.6666C34.3389 39.0741 32.8332 36.7757 30.7206 35.1342C28.6079 33.4927 26.0087 32.6016 23.3333 32.6016C20.6579 32.6016 18.0587 33.4927 15.9461 35.1342C13.8334 36.7757 12.3277 39.0741 11.6667 41.6666H35Z" fill="#8497A8" stroke="#271962" stroke-linecap="round" stroke-linejoin="round"/>
</svg>
