<svg width="80" height="80" viewBox="0 0 80 80" fill="none" xmlns="http://www.w3.org/2000/svg">
<path d="M8.33333 39.9997C8.33333 48.3982 11.6696 56.4527 17.6083 62.3914C23.5469 68.33 31.6015 71.6663 40 71.6663C48.3985 71.6663 56.4531 68.33 62.3917 62.3914C68.3304 56.4527 71.6667 48.3982 71.6667 39.9997C71.6667 31.6012 68.3304 23.5466 62.3917 17.608C56.4531 11.6693 48.3985 8.33301 40 8.33301C31.6015 8.33301 23.5469 11.6693 17.6083 17.608C11.6696 23.5466 8.33333 31.6012 8.33333 39.9997Z" fill="#B1BECA"/>
<path d="M58.3333 25H21.6667C20.7826 25 19.9348 25.3512 19.3096 25.9763C18.6845 26.6014 18.3333 27.4493 18.3333 28.3333V51.6667C18.3333 52.5507 18.6845 53.3986 19.3096 54.0237C19.9348 54.6488 20.7826 55 21.6667 55H58.3333C59.2174 55 60.0652 54.6488 60.6904 54.0237C61.3155 53.3986 61.6667 52.5507 61.6667 51.6667V28.3333C61.6667 27.4493 61.3155 26.6014 60.6904 25.9763C60.0652 25.3512 59.2174 25 58.3333 25Z" fill="#8497A8"/>
<path d="M21.6667 25C20.7826 25 19.9348 25.3512 19.3096 25.9763C18.6845 26.6014 18.3333 27.4493 18.3333 28.3333V51.6667C18.3333 52.5507 18.6845 53.3986 19.3096 54.0237C19.9348 54.6488 20.7826 55 21.6667 55H25.08L55.08 25H21.6667Z" fill="white"/>
<path d="M60.56 7.66659C54.4154 3.75652 47.2832 1.67969 40 1.67969C32.7168 1.67969 25.5846 3.75652 19.44 7.66659" stroke="#271962" stroke-linecap="round" stroke-linejoin="round"/>
<path d="M72.3333 60.5604C76.2453 54.4165 78.3233 47.2841 78.3233 40.0004C78.3233 32.7168 76.2453 25.5843 72.3333 19.4404" stroke="#271962" stroke-linecap="round" stroke-linejoin="round"/>
<path d="M7.66667 19.4404C3.75466 25.5843 1.67668 32.7168 1.67668 40.0004C1.67668 47.2841 3.75466 54.4165 7.66667 60.5604" stroke="#271962" stroke-linecap="round" stroke-linejoin="round"/>
<path d="M19.44 72.333C25.5846 76.2431 32.7168 78.3199 40 78.3199C47.2832 78.3199 54.4154 76.2431 60.56 72.333" stroke="#271962" stroke-linecap="round" stroke-linejoin="round"/>
<path d="M78.3333 78.333L63.3333 63.333" stroke="#271962" stroke-linecap="round" stroke-linejoin="round"/>
<path d="M1.66667 78.333L16.6667 63.333" stroke="#271962" stroke-linecap="round" stroke-linejoin="round"/>
<path d="M78.3333 1.66699L63.3333 16.667" stroke="#271962" stroke-linecap="round" stroke-linejoin="round"/>
<path d="M1.66667 1.66699L16.6667 16.667" stroke="#271962" stroke-linecap="round" stroke-linejoin="round"/>
<path d="M61.6667 30V51.6667C61.6667 52.5507 61.3155 53.3986 60.6904 54.0237C60.0652 54.6488 59.2174 55 58.3333 55H21.6667C20.7826 55 19.9348 54.6488 19.3096 54.0237C18.6845 53.3986 18.3333 52.5507 18.3333 51.6667V30" stroke="#271962" stroke-linecap="round" stroke-linejoin="round"/>
<path d="M61.6667 30V28.3333C61.6667 27.4493 61.3155 26.6014 60.6904 25.9763C60.0652 25.3512 59.2174 25 58.3333 25H21.6667C20.7826 25 19.9348 25.3512 19.3096 25.9763C18.6845 26.6014 18.3333 27.4493 18.3333 28.3333V30L37.35 40.8433C38.1447 41.34 39.0629 41.6033 40 41.6033C40.9371 41.6033 41.8553 41.34 42.65 40.8433L61.6667 30Z" stroke="#271962" stroke-linecap="round" stroke-linejoin="round"/>
</svg>
